<?xml version="1.0" encoding="UTF-8"?>
<svg version="1.1" viewBox="0 0 22 24" xmlns="http://www.w3.org/2000/svg">
<title>petrol</title>
<desc>Created with Sketch.</desc>
<g fill="none" fill-rule="evenodd">
<g fill="#5CA2B2">
<path d="m11.977 22.294c-0.013604-0.055074-0.048912-0.1023-0.097886-0.13093-0.048974-0.028631-0.10745-0.03623-0.16211-0.021068-1.008 0.27-2.064-0.348-2.338-1.37-0.013604-0.055074-0.048912-0.1023-0.097886-0.13093-0.048974-0.028631-0.10745-0.03623-0.16211-0.021068-0.054791 0.014452-0.10142 0.050432-0.12929 0.09977s-0.034619 0.10784-0.018714 0.16223c0.336 1.254 1.619 2.006 2.858 1.674 0.054791-0.014452 0.10142-0.050432 0.12929-0.09977 0.02787-0.049337 0.034619-0.10784 0.018714-0.16223zm9.423-6.518c0.243 0.906-0.297 1.855-1.191 2.094l-5.721 1.533c0.488 1.824-0.582 3.706-2.382 4.188-1.8 0.483-3.668-0.612-4.157-2.436l-5.721 1.533c-0.894 0.24-1.836-0.312-2.078-1.217 1.456-2.124 2.876-5.61 1.202-11.859-0.665-2.483 0.637-5.744 3.886-7.156-0.1096-0.14187-0.19014-0.30396-0.237-0.477-0.18646-0.68008 0.21316-1.3827 0.893-1.57 0.68258-0.1781 1.3804 0.23055 1.559 0.913 0.048 0.181 0.055 0.36 0.033 0.532 3.52-0.402 6.278 1.77 6.943 4.254 1.675 6.249 4.648 8.558 6.97 9.668h1e-3z"/>
</g>
</g>
</svg>
